<svg width="24" height="17" viewBox="0 0 24 17" fill="none" xmlns="http://www.w3.org/2000/svg">
<path d="M20.4304 2.37973C20.746 2.37973 21.0486 2.50509 21.2718 2.72823C21.4949 2.95138 21.6203 3.25402 21.6203 3.56959V13.0885C21.6203 13.4041 21.4949 13.7067 21.2718 13.9299C21.0486 14.153 20.746 14.2784 20.4304 14.2784H8.3271C8.01156 14.2783 7.70896 14.1529 7.48587 13.9297L2.72641 9.17029C2.50334 8.94715 2.37803 8.64456 2.37803 8.32905C2.37803 8.01354 2.50334 7.71095 2.72641 7.48782L7.48587 2.72836C7.70896 2.5052 8.01156 2.3798 8.3271 2.37973H20.4304ZM24 3.56959C24 2.62288 23.6239 1.71494 22.9545 1.04551C22.2851 0.376081 21.3771 0 20.4304 0H8.3271C7.38088 0.000517613 6.47357 0.376708 5.80459 1.04589L1.04513 5.80535C0.375933 6.47475 0 7.38252 0 8.32905C0 9.27558 0.375933 10.1834 1.04513 10.8528L5.80459 15.6122C6.47357 16.2814 7.38088 16.6576 8.3271 16.6581H20.4304C21.3771 16.6581 22.2851 16.282 22.9545 15.6126C23.6239 14.9432 24 14.0352 24 13.0885V3.56959ZM17.702 5.10809C17.4789 4.88502 17.1763 4.75971 16.8608 4.75971C16.5453 4.75971 16.2427 4.88502 16.0196 5.10809L14.4811 6.64658L12.9426 5.10809C12.8328 4.99445 12.7015 4.9038 12.5564 4.84144C12.4112 4.77908 12.2551 4.74625 12.0971 4.74488C11.9391 4.74351 11.7824 4.77362 11.6362 4.83344C11.4899 4.89327 11.3571 4.98162 11.2454 5.09334C11.1337 5.20506 11.0453 5.33791 10.9855 5.48414C10.9256 5.63037 10.8955 5.78705 10.8969 5.94504C10.8983 6.10303 10.9311 6.25916 10.9935 6.40433C11.0558 6.5495 11.1465 6.6808 11.2601 6.79056L12.7986 8.32905L11.2601 9.86755C11.0434 10.092 10.9234 10.3925 10.9262 10.7045C10.9289 11.0165 11.054 11.3149 11.2746 11.5355C11.4952 11.7561 11.7937 11.8813 12.1056 11.884C12.4176 11.8867 12.7182 11.7668 12.9426 11.55L14.4811 10.0115L16.0196 11.55C16.244 11.7668 16.5445 11.8867 16.8565 11.884C17.1685 11.8813 17.4669 11.7561 17.6876 11.5355C17.9082 11.3149 18.0333 11.0165 18.036 10.7045C18.0387 10.3925 17.9188 10.092 17.702 9.86755L16.1635 8.32905L17.702 6.79056C17.9251 6.56743 18.0504 6.26483 18.0504 5.94932C18.0504 5.63381 17.9251 5.33122 17.702 5.10809Z" fill="#282828"/>
</svg>
